/* XPM */
static char *f135f2ec12024cee8cafdc0f9d3fb0c9t2G956X1VZduSkKX[] = {
/* columns rows colors chars-per-pixel */
"40 40 10 1 ",
"  c None",
"O c #4C468B",
"+ c #555793",
"@ c #5F699C",
"# c #7180B1",
"& c #8599C7",
"* c #B4C8C6",
"- c #CBE0DE",
"; c #DCE0D2",
": c #F3F4E7",
/* pixels */
"                                        ",
"                                        ",
"                                        ",
"                                        ",
"                                        ",
"                                        ",
"                                        ",
"                                        ",
"                 ::::::                 ",
"                :+++++O:                ",
"               :+&&&&##O:               ",
"                :OOOOOO:                ",
"               :&-:---*&:               ",
"               :&:----*&:               ",
"               :&-----*&:               ",
"              :&:::::;;;#:              ",
"              :&:::::;;;#:              ",
"              :#:::::;;;@:              ",
"              :#:::::;;;@:              ",
"              :#:::::;;;@:              ",
"              :&:::::;;;#:              ",
"              :&:::::;;;#:              ",
"              :#:::::;;;@:              ",
"              :#:::::;;;@:              ",
"              :#:::::;;;@:              ",
"              :&:::::;;;#:              ",
"              :&:::::;;;#:              ",
"              :#:::::;;;@:              ",
"              :#:::::;;;@:              ",
"              :#::::;;;;@:              ",
"              :@::;;;;;;@:              ",
"               :@@@@@@@@:               ",
"                ::::::::                ",
"                                        ",
"                                        ",
"                                        ",
"                                        ",
"                                        ",
"                                        ",
"                                        "
};
