/* XPM */
static char *f029328781f1454c8b424cf84b6e2f39wHInekdat2zOWH8H[] = {
/* columns rows colors chars-per-pixel */
"40 40 15 1 ",
"  c None",
". c #6B4B5B",
"X c #754C60",
"o c #90625D",
"O c #AA7959",
"+ c #67835C",
"@ c #78A158",
"# c #8DB15D",
"$ c #B68962",
"% c #C49A6C",
"& c #A4C263",
"* c #C0D470",
"= c #DCB98A",
"- c #E8CFA6",
"; c #F3E5C2",
/* pixels */
"                 oooooo                 ",
"              ooo======ooo              ",
"           ooo============ooo           ",
"        ooo======@@@@@@======ooo        ",
"     ooo======@@@*&&&&*@@@======ooo     ",
"  ooo======@@@&#@*&&&&*@#&@@@======ooo  ",
" o======@@@@**&#@&####&@#&**@@@@======o ",
" o===@@@&&#@**&#@*&&&&*@#&**@#&&@@@===o ",
" o%@@#@**&#@&&&#@*&&&&*@#&&&@#&**@#@@%o ",
"  o+&#@**&#@**&#@&####&@#&**@#&**@#&+o  ",
"   +&#@&&&#@**&#@*&&&&*@#&**@#&&&@#&+   ",
"   +&#@**&#@&&&#@*&&&&*@#&&&@#&**@#&+   ",
"   +&#@**&#@**&#@OOOOOO@#&**@#&**@#&+   ",
"   +&#@&&&#@**OOO------OOO**@#&&&@#&+   ",
"   +&#@**&#OOO---;;;;;;---OOO#&**@#&+   ",
"   +&#@*OOO---;;;======;;;---OOO*@#&+   ",
"   +&OOO---;;;============;;;---OOO&+   ",
"  OOO---;;;======oooooo======;;;---OOO  ",
" O---;;;======oooooooooooo======;;;---O ",
" O;;;======oooooooooooooooooo======;;;O ",
" o======oooooooooooooooooooooooo======o ",
" o===oooOOOOOOOOOOOOOOOOOOOOOOOOooo===o ",
"  ooo$%%%%%%%%%%%%%%%%%%%%%%%%%%%%$ooo  ",
"    X%%%%%%%%%%%%%%%%%%%%%%%%%%%%%%.    ",
"    XOOOOOOOOOOOOOOOOOOOOOOOOOOOOOOX    ",
"    X%%%%%%%%%%%%%%%%%%%%%%%%%%%%%%X    ",
"    X%%%%%%%%%%%%%%%%%%%%%%%%%%%%%%X    ",
"    X%%%XXX%%%%%%%%%%%%%%%%%%XXX%%%X    ",
"    XOOXoooXOOOOOXXXXXXOOOOOXoooXOOX    ",
"    X%%XoooX%%%%XooooooX%%%%XoooX%%X    ",
"    X%%XoooX%%%XooooooooX%%%XoooX%%X    ",
"    X%%X%%%X%%%XooooooooX%%%X%%%X%%X    ",
"    XOOO===OOOOXooooooooXOOOO===OOOX    ",
"    X%%%%%%%%%%XooooooooX%%%%%%%%%%X    ",
"    X%%%%%%%%%%XooooooooX%%%%%%%%%%X    ",
"    X%%%%%%%%%%XoOOOOOOoX%%%%%%%%%%X    ",
"     XXXXXXXXXXXO%%%%%%OXXXXXXXXXXX     ",
"       X$$X     o%$$$$%o     X$$X       ",
"        XX      o%$$$$%o      XX        ",
"                 oooooo                 "
};
