/* XPM */
static char *a07e5c651c6a4192943f1ea9863848631uYSPtXer19qtNzR[] = {
/* columns rows colors chars-per-pixel */
"40 40 3 1 ",
"  c None",
". c #AA7959",
"X c #C49A6C",
/* pixels */
"                                        ",
"                                        ",
"     XXXXXXXX     XXXXXXXX     XXXXXXXX ",
"     XXXXXXXX     XXXXXXXX     XXXXXXXX ",
"     XXXXXXXX     XXXXXXXX     XXXXXXXX ",
"     ........     ........     ........ ",
"                                        ",
"                                        ",
"                                        ",
"                                        ",
" XXXXXXXX     XXXXXXXX     XXXXXXXX     ",
" XXXXXXXX     XXXXXXXX     XXXXXXXX     ",
" XXXXXXXX     XXXXXXXX     XXXXXXXX     ",
" ........     ........     ........     ",
"                                        ",
"                                        ",
"                                        ",
"                                        ",
"     XXXXXXXX     XXXXXXXX     XXXXXXXX ",
"     XXXXXXXX     XXXXXXXX     XXXXXXXX ",
"     XXXXXXXX     XXXXXXXX     XXXXXXXX ",
"     ........     ........     ........ ",
"                                        ",
"                                        ",
"                                        ",
"                                        ",
" XXXXXXXX     XXXXXXXX     XXXXXXXX     ",
" XXXXXXXX     XXXXXXXX     XXXXXXXX     ",
" XXXXXXXX     XXXXXXXX     XXXXXXXX     ",
" ........     ........     ........     ",
"                                        ",
"                                        ",
"                                        ",
"                                        ",
"     XXXXXXXX     XXXXXXXX     XXXXXXXX ",
"     XXXXXXXX     XXXXXXXX     XXXXXXXX ",
"     XXXXXXXX     XXXXXXXX     XXXXXXXX ",
"     ........     ........     ........ ",
"                                        ",
"                                        "
};
